<?xml version="1.0" encoding="UTF-8"?>
<!DOCTYPE xml>
<svg viewBox="0 0 128 128" xmlns="http://www.w3.org/2000/svg">
  <rect fill="#121212" width="128" height="128" rx="18" ry="18" />
  <rect fill="#3a3a3c" x="12" y="12" width="104" height="104" rx="8" ry="8" />
  <rect fill="#b59f3b" x="89" y="30" width="20" height="20" rx="4" ry="4" />
  <rect fill="#538d4e" x="89" y="54" width="20" height="20" rx="4" ry="4" />
  <path fill="#f8f8f8" d="m60.408 68.022-32.39 28.614c-3.118 2.753-8.065 1.121-8.903-2.939-0.392-1.883 0.259-3.832 1.705-5.109l27.85-24.59-27.85-24.59c-3.117-2.754-2.064-7.828 1.894-9.133 1.834-0.607 3.857-0.193 5.304 1.084l32.39 28.615c2.437 2.136 2.437 5.912 0 8.048m43.187 19.225h-43.187c-4.156 0-6.753 4.471-4.675 8.047 0.964 1.661 2.745 2.682 4.675 2.682h43.187c4.154 0 6.752-4.47 4.674-8.047-0.964-1.66-2.747-2.682-4.674-2.682" />
</svg>
